<?xml version="1.0" encoding="UTF-8" standalone="no"?>
<!-- Created with Inkscape (http://www.inkscape.org/) -->

<svg
   width="210mm"
   height="297mm"
   viewBox="0 0 210 297"
   version="1.1"
   id="svg1519"
   inkscape:version="1.2.1 (9c6d41e410, 2022-07-14)"
   sodipodi:docname="molekyl-verkstan-experimentera.svg"
   xmlns:inkscape="http://www.inkscape.org/namespaces/inkscape"
   xmlns:sodipodi="http://sodipodi.sourceforge.net/DTD/sodipodi-0.dtd"
   xmlns="http://www.w3.org/2000/svg"
   xmlns:svg="http://www.w3.org/2000/svg">
  <sodipodi:namedview
     id="namedview1521"
     pagecolor="#9f9f9f"
     bordercolor="#000000"
     borderopacity="0.25"
     inkscape:showpageshadow="true"
     inkscape:pageopacity="0"
     inkscape:pagecheckerboard="true"
     inkscape:deskcolor="#d1d1d1"
     inkscape:document-units="mm"
     showgrid="false"
     showborder="true"
     borderlayer="true"
     inkscape:zoom="2.8649832"
     inkscape:cx="79.756141"
     inkscape:cy="19.371842"
     inkscape:window-width="1920"
     inkscape:window-height="991"
     inkscape:window-x="-9"
     inkscape:window-y="-9"
     inkscape:window-maximized="1"
     inkscape:current-layer="layer1" />
  <defs
     id="defs1516" />
  <g
     inkscape:label="Lager 1"
     inkscape:groupmode="layer"
     id="layer1">
    <path
       d="m 1.621178,5.6339228 c -0.0061,-0.0159 -0.0068,-0.0973 -0.0016,-0.18084 0.0075,-0.11993 0.02172,-0.17758 0.06758,-0.27367 0.04581,-0.096 0.05554,-0.13536 0.04602,-0.18612 -0.01335,-0.0712 0.02425,-0.0945 0.04212,-0.0262 0.0076,0.0291 0.01918,0.0353 0.04874,0.026 0.188368,-0.0593 0.259859,-0.0557 0.332397,0.0168 0.137833,0.13783 0.06491,0.38292 -0.121249,0.40752 -0.0761,0.0101 -0.09067,0.006 -0.146786,-0.0447 -0.05223,-0.0468 -0.05734,-0.0578 -0.03161,-0.0678 0.01895,-0.007 0.04527,0.003 0.06881,0.0262 0.101973,0.10197 0.274103,-0.036 0.243648,-0.19536 -0.0043,-0.0224 -0.02713,-0.0617 -0.05075,-0.0872 -0.05045,-0.0544 -0.120358,-0.0598 -0.226349,-0.0174 l -0.07231,0.0289 7.67e-4,0.17749 c 0.0012,0.26819 -0.05137,0.42518 -0.142301,0.42518 -0.02531,0 -0.05102,-0.013 -0.05712,-0.0289 z m 0.105864,-0.0766 c 0.03203,-0.0837 0.06181,-0.37025 0.04067,-0.39139 -0.03052,-0.0305 -0.115645,0.22787 -0.115837,0.35164 -1.38e-4,0.10231 0.04257,0.12491 0.07516,0.0397 z m 1.153604,-0.0883 c -0.02876,-0.0756 -0.02112,-0.23242 0.01475,-0.30278 0.02531,-0.0496 0.02878,-0.0775 0.01547,-0.12393 -0.01999,-0.0697 0.01251,-0.12746 0.03387,-0.0602 0.01454,0.0458 0.03005,0.0469 0.137102,0.01 0.04481,-0.0156 0.100303,-0.0236 0.12332,-0.0179 0.05406,0.0136 0.09146,0.079 0.06197,0.10837 -0.01579,0.0157 -0.02948,0.01 -0.05485,-0.0238 -0.03156,-0.0418 -0.03853,-0.0433 -0.104512,-0.023 -0.125016,0.0385 -0.123126,0.0342 -0.09746,0.22197 0.0269,0.19688 0.01138,0.25862 -0.06503,0.25862 -0.03327,0 -0.05187,-0.0136 -0.06461,-0.0471 z m 0.05649,-0.2345 c -0.01356,-0.0136 -0.01934,0.009 -0.01934,0.0746 0,0.1411 0.02638,0.1833 0.0331,0.0529 0.0031,-0.0595 -0.0031,-0.11688 -0.01376,-0.12752 z m 0.432162,0.19647 c -0.05665,-0.16625 -0.0608,-0.4238 -0.0065,-0.40571 0.01386,0.005 0.02325,0.0644 0.02621,0.16691 0.003,0.10068 0.0156,0.18294 0.0344,0.22254 0.0283,0.0597 0.0244,0.10136 -0.01,0.10136 -0.009,0 -0.0286,-0.0383 -0.04453,-0.0851 z m 0.211498,0.0449 c -0.009,-0.0233 -0.0259,-0.11257 -0.0383,-0.19835 -0.0124,-0.0858 -0.0337,-0.18261 -0.0473,-0.21519 -0.0175,-0.0419 -0.0189,-0.0628 -0.005,-0.0716 0.0235,-0.0145 0.0695,0.042 0.0695,0.0854 0,0.0582 0.0237,0.0527 0.0742,-0.017 0.0871,-0.12023 0.20778,-0.11154 0.26096,0.0188 l 0.0229,0.0562 0.0603,-0.0751 c 0.0497,-0.0618 0.0716,-0.0751 0.12387,-0.0751 0.11223,0 0.16062,0.0978 0.1312,0.26513 -0.0176,0.10019 -0.077,0.23027 -0.10509,0.23027 -0.0267,0 -0.0221,-0.035 0.0187,-0.1424 0.041,-0.10788 0.0481,-0.24245 0.0147,-0.27594 -0.0922,-0.0922 -0.23363,0.0975 -0.23445,0.31437 -2.6e-4,0.0773 -0.007,0.10492 -0.0233,0.0994 -0.015,-0.005 -0.0266,-0.0653 -0.0336,-0.1743 -0.0126,-0.19696 -0.046,-0.26704 -0.12307,-0.25806 -0.0346,0.004 -0.0613,0.0271 -0.0916,0.0791 -0.0384,0.0658 -0.0417,0.0889 -0.0325,0.22367 0.0103,0.15114 -0.0107,0.21571 -0.0424,0.13064 z m 2.06584,-0.0105 c -0.0562,-0.0587 -0.10506,-0.18437 -0.10506,-0.27039 0,-0.0328 -0.005,-0.0852 -0.0114,-0.11646 -0.0107,-0.0536 -0.0136,-0.0553 -0.0499,-0.0298 -0.0443,0.031 -0.10381,0.0359 -0.10381,0.008 0,-0.0102 0.0367,-0.0364 0.0816,-0.0583 0.0789,-0.0383 0.0821,-0.0431 0.094,-0.14196 0.007,-0.0563 0.0157,-0.10812 0.0198,-0.11525 0.0143,-0.0248 0.0573,0.006 0.0513,0.0371 -0.003,0.017 -0.0103,0.0629 -0.0155,0.102 l -0.01,0.0711 0.0631,-0.0102 c 0.0666,-0.0108 0.10489,0.0167 0.0615,0.0442 -0.0139,0.009 -0.0491,0.0161 -0.0781,0.0163 l -0.0528,2.6e-4 0.008,0.1422 c 0.009,0.14922 0.0455,0.24834 0.11099,0.30023 0.0206,0.0163 0.0315,0.039 0.0245,0.0504 -0.0194,0.0314 -0.0358,0.0259 -0.0891,-0.0298 z m -4.877448,-0.009 c -0.03429,-0.023 -0.07885,-0.0724 -0.09901,-0.10977 -0.03528,-0.0653 -0.03549,-0.0712 -0.0057,-0.15406 0.02116,-0.0588 0.02551,-0.0964 0.01373,-0.11839 -0.05223,-0.0976 0.007,-0.21592 0.125833,-0.25153 0.09669,-0.029 0.112938,-0.0276 0.183507,0.0154 0.07437,0.0453 0.06149,0.0849 -0.0148,0.0454 -0.07727,-0.04 -0.136249,-0.0338 -0.201273,0.0209 -0.04217,0.0355 -0.05595,0.0611 -0.05186,0.0963 0.0063,0.0543 0.03991,0.0588 0.138632,0.0184 0.05399,-0.0221 0.06323,-0.0208 0.09704,0.013 0.07137,0.0714 1.39e-4,0.13017 -0.138091,0.11404 -0.05738,-0.007 -0.06679,-0.001 -0.09294,0.0539 -0.03786,0.0798 -0.01632,0.14697 0.06469,0.20186 0.07541,0.0511 0.164223,0.0529 0.225643,0.005 0.05386,-0.0424 0.08673,-0.0471 0.08673,-0.0126 0,0.0365 -0.134087,0.10429 -0.206201,0.10429 -0.03575,0 -0.09089,-0.0183 -0.125939,-0.0419 z m 0.140548,-0.37844 c -0.0057,-0.009 -0.02678,-0.0123 -0.04695,-0.007 -0.05048,0.0132 -0.04594,0.0237 0.01028,0.0237 0.02582,0 0.04233,-0.007 0.03668,-0.0166 z m 1.514074,0.38761 c -0.07096,-0.0388 -0.129854,-0.13432 -0.129854,-0.21051 0,-0.0685 0.07869,-0.18948 0.145773,-0.22417 0.11469,-0.0593 0.300938,-0.018 0.323463,0.0718 0.01677,0.0668 0.0037,0.10356 -0.05157,0.14477 -0.07007,0.0523 -0.252948,0.065 -0.318352,0.0221 -0.04712,-0.0309 -0.04757,-0.0307 -0.03531,0.0116 0.02076,0.0716 0.0733,0.13186 0.127724,0.14641 0.06904,0.0185 0.147983,9e-4 0.186318,-0.0415 0.03856,-0.0426 0.08546,-0.0453 0.07742,-0.004 -0.01766,0.0898 -0.219728,0.14188 -0.325607,0.0839 z m 0.238019,-0.25219 c 0.108007,-0.0558 0.04628,-0.15549 -0.09633,-0.15549 -0.07081,0 -0.09923,0.01 -0.134767,0.045 -0.05553,0.0555 -0.05622,0.0735 -0.0043,0.10988 0.05196,0.0364 0.16553,0.0367 0.235354,5.6e-4 z m -1.515591,0.24311 c -0.0067,-0.0174 0.02362,-0.0617 0.08255,-0.12066 l 0.09312,-0.0931 -0.09401,-0.12884 c -0.06596,-0.0904 -0.09019,-0.1385 -0.08119,-0.16122 0.01194,-0.0301 0.01464,-0.0298 0.0395,0.004 0.179456,0.2468 0.17354,0.24506 0.247959,0.0731 0.02951,-0.0682 0.05391,-0.10013 0.07664,-0.10034 0.04258,-4e-4 0.03108,0.0416 -0.05328,0.19473 l -0.06197,0.11247 0.09141,0.0855 c 0.08783,0.0822 0.116116,0.13907 0.0691,0.13907 -0.01227,0 -0.06246,-0.0392 -0.111532,-0.0872 l -0.08923,-0.0872 -0.06736,0.0734 c -0.102195,0.11134 -0.128851,0.12937 -0.141714,0.0958 z m 3.279588,-0.0138 c -0.0617,-0.0376 -0.11357,-0.13068 -0.11357,-0.20374 0,-0.0695 0.0856,-0.19233 0.15793,-0.22667 0.13871,-0.0658 0.31912,0.006 0.31912,0.12632 0,0.10301 -0.22165,0.18473 -0.36238,0.13361 -0.0332,-0.0121 -0.0412,-0.009 -0.0407,0.0183 0.001,0.0684 0.0863,0.13426 0.17343,0.13426 0.0555,0 0.15626,-0.0476 0.15626,-0.0739 0,-0.01 0.013,-0.0179 0.0289,-0.0179 0.0477,0 0.0219,0.0595 -0.0455,0.10486 -0.0787,0.0531 -0.19103,0.055 -0.27348,0.005 z m 0.25656,-0.24653 c 0.0672,-0.0278 0.0528,-0.12391 -0.0223,-0.14772 -0.10898,-0.0346 -0.28854,0.0639 -0.24437,0.13409 0.0335,0.0532 0.15586,0.0595 0.26664,0.0136 z m 0.28957,0.28064 c -10e-4,-0.0108 -0.10686,-0.40822 -0.1196,-0.45106 -0.009,-0.0306 -0.005,-0.0413 0.0166,-0.0413 0.0178,0 0.0373,0.0281 0.0509,0.0734 0.0196,0.0654 0.0529,0.10095 0.0529,0.0565 0,-0.03 0.0945,-0.13032 0.1495,-0.15878 0.0705,-0.0365 0.14042,-0.005 0.18646,0.084 0.0385,0.0744 0.0311,0.24493 -0.0155,0.35641 -0.0328,0.0785 -0.0739,0.0898 -0.0552,0.0151 0.027,-0.10781 0.0324,-0.29918 0.01,-0.35354 -0.0326,-0.0788 -0.10664,-0.0751 -0.18054,0.009 -0.0623,0.071 -0.0862,0.16104 -0.0698,0.26301 0.006,0.0372 0.0132,0.0833 0.016,0.10237 0.003,0.0191 -0.005,0.0384 -0.0178,0.0428 -0.0126,0.004 -0.0233,0.005 -0.0238,0.002 z m 1.47441,-0.048 c -0.0615,-0.0391 -0.0822,-0.26522 -0.0329,-0.35972 0.0227,-0.0436 0.0237,-0.0639 0.006,-0.11422 -0.0264,-0.073 -0.004,-0.10607 0.0341,-0.0498 l 0.0268,0.0398 0.0767,-0.0348 c 0.0422,-0.0192 0.0988,-0.035 0.12586,-0.0352 0.0527,-4.2e-4 0.10681,0.0413 0.10681,0.0824 0,0.0439 -0.0332,0.0477 -0.0617,0.007 -0.0227,-0.0323 -0.0389,-0.0371 -0.0917,-0.0272 -0.0353,0.007 -0.0808,0.0262 -0.10102,0.0436 -0.0352,0.0301 -0.0357,0.0372 -0.0112,0.15996 0.037,0.18482 0.0347,0.26065 -0.008,0.28375 -0.0418,0.0224 -0.0409,0.0223 -0.0689,0.005 z m 0.0304,-0.19371 c -0.008,-0.059 -0.0198,-0.11194 -0.0256,-0.11773 -0.0144,-0.0144 -0.0134,0.18693 0.001,0.22467 0.0239,0.0623 0.039,-0.004 0.0245,-0.10694 z m -0.56152,0.15564 c -0.0365,-0.023 -0.0692,-0.0669 -0.0897,-0.12033 -0.0318,-0.0832 -0.0317,-0.0851 0.0117,-0.16905 0.0703,-0.13624 0.20208,-0.19427 0.339,-0.1493 0.0787,0.0258 0.11271,0.0866 0.0928,0.16582 -0.0242,0.0964 -0.23903,0.15277 -0.3672,0.0963 -0.0297,-0.0131 -0.0324,-0.009 -0.0208,0.029 0.007,0.0242 0.0304,0.0626 0.0512,0.0853 0.0605,0.0661 0.23059,0.0503 0.27541,-0.0256 0.0189,-0.0319 0.0679,-0.0323 0.0679,-5.3e-4 0,0.0134 -0.0208,0.0438 -0.0461,0.0677 -0.0648,0.0609 -0.23261,0.0719 -0.31415,0.0207 z m 0.24559,-0.24089 c 0.11117,-0.0678 0.0681,-0.14698 -0.08,-0.14698 -0.0851,0 -0.10107,0.006 -0.14508,0.0588 l -0.0495,0.0588 0.0407,0.033 c 0.0536,0.0434 0.15949,0.0418 0.23387,-0.004 z m 0.81902,0.18766 c -0.097,-0.0157 -0.18522,-0.18872 -0.15315,-0.30055 0.0431,-0.15014 0.15216,-0.20725 0.29983,-0.15693 0.0494,0.0169 0.0884,0.0216 0.0947,0.0115 0.006,-0.009 0.0257,-0.0171 0.0442,-0.0171 0.0481,0 0.0602,0.0719 0.0292,0.17476 -0.0243,0.0808 -0.0236,0.0928 0.01,0.15818 0.0198,0.0389 0.0483,0.0707 0.0632,0.0707 0.0149,0 0.0271,0.0124 0.0271,0.0275 0,0.0608 -0.10119,0.0245 -0.13982,-0.0502 l -0.0284,-0.0549 -0.0489,0.0575 c -0.0501,0.0589 -0.12885,0.0905 -0.19777,0.0794 z m 0.0979,-0.0651 c 0.0811,-0.0451 0.12553,-0.12911 0.11804,-0.22325 -0.006,-0.079 -0.0125,-0.0889 -0.071,-0.11336 -0.13026,-0.0544 -0.24382,0.0231 -0.24382,0.16633 0,0.0838 0.0379,0.1517 0.0983,0.17607 0.0512,0.0207 0.0508,0.0207 0.0985,-0.006 z m 0.18289,-0.30134 c -0.005,-0.0178 -0.009,-0.008 -0.009,0.0226 -3.4e-4,0.0303 0.003,0.0449 0.008,0.0325 0.005,-0.0124 0.005,-0.0372 6.9e-4,-0.055 z m 0.19829,0.36202 c -0.0198,-0.032 0.01,-0.0592 0.0381,-0.0355 0.0141,0.0117 0.0212,0.0286 0.0156,0.0376 -0.0134,0.0217 -0.0397,0.0206 -0.0538,-0.002 z m -0.0151,-0.17239 c -0.0173,-0.0452 0.0196,-0.33429 0.0503,-0.39365 0.0572,-0.11066 0.10858,-0.0824 0.0551,0.0303 -0.0184,0.0387 -0.0368,0.13429 -0.0429,0.22238 -0.01,0.14474 -0.0374,0.20643 -0.0625,0.14099 z m -4.074005,-0.24399 c -0.02193,-0.0219 -0.01185,-0.0607 0.01579,-0.0607 0.0151,0 0.0275,0.0119 0.0275,0.0264 0,0.0307 -0.0262,0.0513 -0.04331,0.0342 z M 0.229807,3.8702328 C 0.151257,3.7009728 0.067411,3.5187028 0.04349,3.4651928 L 0,3.3678928 l 0.09476,0.006 0.09476,0.006 0.07974,0.19266 c 0.04386,0.10596 0.08617,0.20784 0.09404,0.2264 0.01083,0.0256 0.03639,-0.0207 0.105202,-0.19029 0.04999,-0.12322 0.10041,-0.22768 0.112037,-0.23214 0.01163,-0.004 0.05492,-0.006 0.09621,-0.002 l 0.07507,0.006 -0.180735,0.39063 c -0.09941,0.21485 -0.184723,0.39462 -0.189595,0.39949 -0.0049,0.005 -0.07313,-0.12962 -0.151685,-0.29888 z m 7.976789,0.0854 -0.24312,-0.22078 v 0.20281 0.2028 h -0.0917 -0.0917 v -0.40561 -0.4056 l 0.14759,0.13497 c 0.0812,0.0742 0.19264,0.17508 0.2477,0.22411 l 0.10011,0.0891 v -0.20382 -0.20381 h 0.0917 0.0917 v 0.40366 c 0,0.22201 -0.002,0.40349 -0.005,0.40328 -0.003,-2e-4 -0.11399,-0.0997 -0.2477,-0.22115 z m -3.55495,0.1685 c -0.0404,-0.0186 -0.092,-0.0541 -0.11466,-0.0788 l -0.0413,-0.0449 0.0542,-0.0519 0.0542,-0.0519 0.0657,0.0577 c 0.0523,0.046 0.0821,0.0577 0.14631,0.0577 0.0867,0 0.14406,-0.0381 0.13461,-0.0894 -0.003,-0.0168 -0.0729,-0.0625 -0.15952,-0.10454 -0.1867,-0.0905 -0.22212,-0.12947 -0.22212,-0.24438 0,-0.1485 0.0882,-0.22223 0.26587,-0.22223 0.10265,0 0.21754,0.0422 0.26264,0.0966 0.017,0.0205 0.0121,0.0347 -0.0239,0.0685 -0.0446,0.0419 -0.0464,0.0421 -0.11574,0.0109 -0.0402,-0.0181 -0.10129,-0.0292 -0.1425,-0.0258 -0.0631,0.005 -0.0721,0.0116 -0.0721,0.0517 0,0.0478 0.0165,0.0591 0.22004,0.15123 0.16427,0.0744 0.21557,0.21754 0.12316,0.34378 -0.0795,0.10856 -0.286,0.14458 -0.43494,0.0758 z m -3.44028,-0.36898 v -0.38531 h 0.266048 0.266048 v 0.0734 0.0734 H 1.569155 1.394848 v 0.0917 0.0917 h 0.155959 0.155959 v 0.0734 0.0734 H 1.550807 1.394848 v 0.0734 0.0734 H 1.578329 1.76181 v 0.0734 0.0734 H 1.486588 1.211366 Z m 1.064191,0 v -0.38531 h 0.188355 c 0.214717,0 0.287747,0.0262 0.357503,0.12842 0.07368,0.10795 0.03813,0.2914 -0.06743,0.34789 -0.03599,0.0193 -0.03444,0.0244 0.04489,0.14814 0.04519,0.0705 0.08217,0.13224 0.08217,0.13718 0,0.005 -0.0437,0.009 -0.0971,0.009 h -0.0971 l -0.06977,-0.11926 c -0.05522,-0.0944 -0.07897,-0.11927 -0.113901,-0.11927 -0.04209,0 -0.04413,0.006 -0.04413,0.11927 v 0.11926 h -0.09174 -0.09174 z m 0.366963,-0.0367 c 0.08326,-0.0833 0.01859,-0.20183 -0.110088,-0.20183 h -0.07339 v 0.11926 0.11927 h 0.07339 c 0.04893,0 0.08562,-0.0122 0.110088,-0.0367 z m 0.752276,0.0367 v -0.38531 h 0.0917 0.0917 v 0.16745 0.16746 l 0.1296,-0.16746 0.1296,-0.16745 h 0.11212 0.11213 l -0.0366,0.0413 c -0.24339,0.27426 -0.2832,0.32928 -0.26006,0.35941 0.0234,0.0304 0.20984,0.25027 0.27875,0.32864 l 0.0363,0.0413 -0.11788,-5.8e-4 -0.11787,-5.9e-4 -0.12844,-0.17488 -0.12843,-0.17489 -0.005,0.17547 -0.005,0.17546 h -0.0911 -0.0911 v -0.38531 z m 2.40361,0.0734 v -0.31192 h -0.11927 -0.11926 v -0.0734 -0.0734 h 0.33027 0.33026 v 0.0734 0.0734 h -0.11926 -0.11926 v 0.31192 0.31192 h -0.0917 -0.0917 z m 0.73889,0.29816 c 0.004,-0.008 0.0884,-0.18532 0.18763,-0.395 0.0993,-0.20967 0.1873,-0.37894 0.19562,-0.37613 0.0125,0.004 0.3824,0.75684 0.3824,0.77811 0,0.004 -0.0411,0.007 -0.0913,0.007 -0.0829,0 -0.0939,-0.005 -0.11973,-0.055 -0.028,-0.0541 -0.0308,-0.055 -0.17431,-0.055 -0.14349,0 -0.1463,9e-4 -0.17431,0.055 -0.0259,0.0501 -0.0368,0.055 -0.12081,0.055 -0.0508,0 -0.0891,-0.006 -0.0852,-0.0138 z m 0.47208,-0.23817 c 0,-0.0269 -0.0805,-0.20678 -0.0926,-0.20678 -0.0103,0 -0.0909,0.18851 -0.0909,0.21264 0,0.004 0.0413,0.008 0.0917,0.008 0.0505,0 0.0917,-0.006 0.0917,-0.0134 z m -5.055935,-0.88357 c -0.145294,-0.066 -0.246675,-0.23198 -0.246675,-0.40388 0,-0.19386 0.162711,-0.37516 0.370515,-0.41285 0.07533,-0.0137 0.07185,-0.007 0.121827,-0.23395 l 0.03495,-0.1587 -0.0774,-0.0546 c -0.256884,-0.18107 -0.204778,-0.60639 0.08934,-0.72925 0.146391,-0.0612 0.345392,-0.0267 0.458476,0.0793 0.05922,0.0555 0.139425,0.2121 0.139698,0.27274 1.39e-4,0.0353 0.02019,0.0442 0.179073,0.0797 0.09839,0.0219 0.197472,0.0441 0.220178,0.0494 0.02406,0.006 0.04128,8.2e-4 0.04128,-0.0113 0,-0.0114 0.03352,-0.0571 0.07448,-0.10155 0.07103,-0.077 0.194153,-0.13856 0.277403,-0.13856 0.0184,0 0.0334,-0.004 0.0334,-0.009 0,-0.0129 0.0727,-0.34172997 0.0833,-0.37692997 0.006,-0.0183 -0.0201,-0.0487 -0.0717,-0.0851 -0.0546,-0.0385 -0.0965,-0.0898 -0.13101,-0.16024 -0.17914,-0.36615 0.21259,-0.74744 0.57694,-0.56156 0.1229,0.0627 0.1909,0.16198 0.22891,0.33422 0.0121,0.0547 0.007,0.0524 0.2485,0.10821 0.14305,0.033 0.17488,0.0356 0.18133,0.0147 0.004,-0.0139 0.046,-0.0627 0.0927,-0.10827 0.1361,-0.13299 0.30347,-0.16304 0.46991,-0.0844 0.16822,0.0795 0.248,0.20581 0.24729,0.39145 -4.7e-4,0.13492 -0.046,0.23608 -0.14375,0.31975997 -0.1159,0.0992 -0.25863,0.1304 -0.40749,0.089 -0.13026,-0.0362 -0.29189,-0.22069997 -0.29265,-0.33408997 -1.4e-4,-0.0231 -0.007,-0.0522 -0.0147,-0.0647 -0.0219,-0.0345 -0.41446,-0.11926 -0.42326,-0.0914 -0.004,0.0122 -0.0452,0.0596 -0.0919,0.10517 -0.0797,0.0779 -0.1857,0.12809 -0.27049,0.12809 -0.0293,0 -0.0414,0.03 -0.0759,0.18865997 -0.0225,0.10376 -0.041,0.19762 -0.041,0.20857 0,0.0109 0.0326,0.0414 0.0724,0.0678 0.14932,0.0988 0.21741,0.30711 0.15842,0.4847 -0.0979,0.29475 -0.46559,0.38565 -0.695728,0.172 -0.06377,-0.0592 -0.10194,-0.13007 -0.129083,-0.23969 l -0.02065,-0.0834 -0.20109,-0.0441 c -0.191006,-0.0419 -0.202047,-0.0425 -0.220177,-0.0115 -0.07185,0.12259 -0.231104,0.22889 -0.343531,0.2293 -0.05558,2e-4 -0.0536,-0.004 -0.105206,0.22953 -0.02399,0.10862 -0.02989,0.16743 -0.01722,0.17184 0.04533,0.0158 0.149333,0.12404 0.185814,0.19339 0.05479,0.10414 0.05466,0.28488 -2.65e-4,0.38932 -0.04488,0.0853 -0.132026,0.16559 -0.219714,0.20234 -0.08443,0.0354 -0.256868,0.0305 -0.345641,-0.01 z m 0.318778,-0.16778 c 0.08011,-0.0488 0.138086,-0.17649 0.121153,-0.26676 -0.04867,-0.25941 -0.421698,-0.28215 -0.504666,-0.0308 -0.0732,0.22181 0.182422,0.42011 0.383513,0.29751 z m 1.544987,-0.95383 c 0.18557,-0.13213 0.11957,-0.42736 -0.10495,-0.46948 -0.2957,-0.0555 -0.435005,0.3585 -0.16667,0.49532 0.0782,0.0399 0.19493,0.0288 0.27162,-0.0258 z m -1.228915,-0.28489 c 0.109527,-0.10493 0.116638,-0.26828 0.01615,-0.37106 -0.11603,-0.11867 -0.274719,-0.1167 -0.381349,0.005 -0.162099,0.18462 -0.03277,0.4426 0.213415,0.4257 0.07622,-0.005 0.108406,-0.0178 0.151782,-0.0594 z M 5.313756,0.92103283 c 0.21465,-0.14065 0.1159,-0.47559 -0.14023,-0.47559 -0.16113,0 -0.26294,0.11281 -0.25075,0.27783 0.008,0.10661 0.054,0.1733 0.15087,0.21803 0.0661,0.0305 0.17683,0.0212 0.24011,-0.0203 z m -1.26607,-0.25949 c 0.12856,-0.061 0.18186,-0.24515 0.10743,-0.37115 -0.0462,-0.0782 -0.17249,-0.13936 -0.25887,-0.12534 -0.25544,0.0414 -0.30936,0.37814 -0.0791,0.49383 0.0795,0.0399 0.15023,0.0408 0.23052,0.003 z M 0.440745,2.6084028 c 0,-0.21697 0.0061,-0.39449 0.01345,-0.39449 0.0074,0 0.0963,0.0826 0.197571,0.1835 l 0.184123,0.1835 0.182809,-0.1835 c 0.100544,-0.10092 0.189155,-0.1835 0.196913,-0.1835 0.0078,0 0.0141,0.17752 0.0141,0.39449 v 0.39448 h -0.09174 -0.09174 v -0.19704 -0.19704 l -0.104238,0.10424 -0.104238,0.10423 -0.106766,-0.0925 -0.106765,-0.0925 v 0.1853 0.18529 h -0.09174 -0.09174 z m 2.605434,0.009 v -0.38531 h 0.09174 0.09174 v 0.31192 0.31192 h 0.183477 0.18348 v 0.0734 0.0734 H 3.3214 3.046178 Z m 1.045847,0 v -0.38531 h 0.26605 0.26605 v 0.0734 0.0734 h -0.17431 -0.17431 v 0.0917 0.0917 h 0.15596 0.15596 v 0.0734 0.0734 h -0.15596 -0.15596 v 0.0734 0.0734 h 0.18348 0.18348 v 0.0734 0.0734 h -0.27522 -0.27522 z m 1.06419,0 v -0.38531 h 0.091 0.0911 l 0.005,0.16521 0.005,0.16521 0.12544,-0.16521 0.12544,-0.16521 h 0.11074 c 0.12724,0 0.13192,-0.0186 -0.0483,0.19266 -0.0603,0.0706 -0.11974,0.14083 -0.13216,0.15599 -0.0235,0.0287 -0.0191,0.035 0.22885,0.32785 l 0.0797,0.0941 -0.11639,-5.8e-4 -0.11638,-5.8e-4 -0.12844,-0.17489 -0.12844,-0.17489 -0.005,0.17547 -0.005,0.17547 h -0.0911 -0.0911 v -0.38531 z m 1.35776,0.24447 v -0.14119 l -0.13761,-0.23682 c -0.0757,-0.13025 -0.13761,-0.24026 -0.13761,-0.24447 0,-0.004 0.0435,-0.008 0.0968,-0.008 h 0.0968 l 0.0888,0.17885 0.0888,0.17885 0.0898,-0.17885 0.0898,-0.17885 h 0.0997 0.0996 l -0.1457,0.25186 c -0.14559,0.25168 -0.1457,0.25196 -0.1457,0.38531 v 0.13345 h -0.0917 -0.0917 z m 0.93576,-0.24447 v -0.38531 h 0.0917 0.0917 v 0.31192 0.31192 h 0.19265 0.19266 v 0.0734 0.0734 h -0.2844 -0.28439 z"
       fill="#ffffff"
       stroke-width="0.0183481"
       id="path10" />
  </g>
</svg>
