<?xml version="1.0" encoding="UTF-8" standalone="no"?>
<!-- Uploaded to SVGRepo https://www.svgrepo.com -->

<svg
   xmlns:dc="http://purl.org/dc/elements/1.1/"
   xmlns:cc="http://creativecommons.org/ns#"
   xmlns:rdf="http://www.w3.org/1999/02/22-rdf-syntax-ns#"
   xmlns:svg="http://www.w3.org/2000/svg"
   xmlns="http://www.w3.org/2000/svg"
   xmlns:sodipodi="http://sodipodi.sourceforge.net/DTD/sodipodi-0.dtd"
   xmlns:inkscape="http://www.inkscape.org/namespaces/inkscape"
   version="1.1"
   id="Layer_1"
   x="0px"
   y="0px"
   viewBox="0 0 32 32"
   style="enable-background:new 0 0 32 32;"
   xml:space="preserve"
   sodipodi:docname="bin.svg"
   inkscape:version="0.92.5 (2060ec1f9f, 2020-04-08)"><metadata
   id="metadata9"><rdf:RDF><cc:Work
       rdf:about=""><dc:format>image/svg+xml</dc:format><dc:type
         rdf:resource="http://purl.org/dc/dcmitype/StillImage" /></cc:Work></rdf:RDF></metadata><defs
   id="defs7" /><sodipodi:namedview
   pagecolor="#ffffff"
   bordercolor="#666666"
   borderopacity="1"
   objecttolerance="10"
   gridtolerance="10"
   guidetolerance="10"
   inkscape:pageopacity="0"
   inkscape:pageshadow="2"
   inkscape:window-width="1920"
   inkscape:window-height="1016"
   id="namedview5"
   showgrid="false"
   inkscape:zoom="7.375"
   inkscape:cx="16"
   inkscape:cy="16"
   inkscape:window-x="0"
   inkscape:window-y="27"
   inkscape:window-maximized="1"
   inkscape:current-layer="Layer_1" />
<path
   id="compost--bin_1_"
   d="M26,31.36H6c-0.199,0-0.36-0.161-0.36-0.36V5.36H2V4.64h8.64V1c0-0.199,0.161-0.36,0.36-0.36h10  c0.199,0,0.36,0.161,0.36,0.36v3.64H30v0.72h-3.64V31C26.36,31.199,26.199,31.36,26,31.36z M6.36,30.64h19.28V5.36H6.36V30.64z   M11.36,4.64h9.28V1.36h-9.28V4.64z M22,25.36H10v-0.72h5.64v-4.28H14c-2.404,0-4.36-1.956-4.36-4.36v-2  c0-0.199,0.161-0.36,0.36-0.36h2c1.529,0,2.877,0.792,3.656,1.986c0.19-2.23,2.066-3.986,4.344-3.986h2  c0.199,0,0.36,0.161,0.36,0.36v2c0,2.404-1.956,4.36-4.36,4.36h-1.64v6.279H22V25.36z M10.36,14.36V16c0,2.007,1.633,3.64,3.64,3.64  h1.131l-2.385-2.385l0.509-0.509l2.386,2.385V18c0-2.007-1.633-3.64-3.64-3.64H10.36z M16.869,17.64H18  c2.007,0,3.64-1.632,3.64-3.64v-1.64H20c-2.007,0-3.64,1.633-3.64,3.64v1.131l2.385-2.385l0.51,0.509L16.869,17.64z"
   style="fill:#ddecf2;fill-opacity:1" />
<rect
   id="_Transparent_Rectangle"
   style="fill:none;"
   width="32"
   height="32" />
</svg>