<?xml version="1.0" encoding="UTF-8" standalone="no"?>
<svg
   id="svg157"
   viewBox="0 0 700 700"
   version="1.1"
   height="700pt"
   width="700pt"
   sodipodi:docname="Biomassa.svg"
   inkscape:version="1.3-dev (77bc73e, 2022-05-18)"
   xmlns:inkscape="http://www.inkscape.org/namespaces/inkscape"
   xmlns:sodipodi="http://sodipodi.sourceforge.net/DTD/sodipodi-0.dtd"
   xmlns="http://www.w3.org/2000/svg"
   xmlns:svg="http://www.w3.org/2000/svg"
   xmlns:rdf="http://www.w3.org/1999/02/22-rdf-syntax-ns#"
   xmlns:cc="http://creativecommons.org/ns#"
   xmlns:dc="http://purl.org/dc/elements/1.1/">
  <sodipodi:namedview
     pagecolor="#ffffff"
     bordercolor="#666666"
     borderopacity="1"
     objecttolerance="10"
     gridtolerance="10"
     guidetolerance="10"
     inkscape:pageopacity="0"
     inkscape:pageshadow="2"
     inkscape:window-width="1440"
     inkscape:window-height="900"
     id="namedview105"
     showgrid="false"
     inkscape:zoom="0.715188"
     inkscape:cx="446.73568"
     inkscape:cy="461.41714"
     inkscape:window-x="0"
     inkscape:window-y="0"
     inkscape:window-maximized="0"
     inkscape:current-layer="svg157"
     inkscape:pagecheckerboard="true"
     inkscape:showpageshadow="2"
     inkscape:deskcolor="#d1d1d1"
     inkscape:document-units="pt" />
  <metadata
     id="metadata161">
    <rdf:RDF>
      <cc:Work
         rdf:about="">
        <dc:format>image/svg+xml</dc:format>
        <dc:type
           rdf:resource="http://purl.org/dc/dcmitype/StillImage" />
        <dc:title />
      </cc:Work>
    </rdf:RDF>
  </metadata>
  <defs
     id="defs71">
    <symbol
       overflow="visible"
       id="w">
      <path
         id="path2"
         d="m18.766-1.125c-0.96875 0.5-1.9805 0.875-3.0312 1.125-1.043 0.25781-2.1367 0.39062-3.2812 0.39062-3.3984 0-6.0898-0.94531-8.0781-2.8438-1.9922-1.9062-2.9844-4.4844-2.9844-7.7344 0-3.2578 0.99219-5.8359 2.9844-7.7344 1.9883-1.9062 4.6797-2.8594 8.0781-2.8594 1.1445 0 2.2383 0.13281 3.2812 0.39062 1.0508 0.25 2.0625 0.625 3.0312 1.125v4.2188c-0.98047-0.65625-1.9453-1.1406-2.8906-1.4531-0.94922-0.3125-1.9492-0.46875-3-0.46875-1.875 0-3.3516 0.60547-4.4219 1.8125-1.0742 1.1992-1.6094 2.8555-1.6094 4.9688 0 2.1055 0.53516 3.7617 1.6094 4.9688 1.0703 1.1992 2.5469 1.7969 4.4219 1.7969 1.0508 0 2.0508-0.14844 3-0.45312 0.94531-0.3125 1.9102-0.80078 2.8906-1.4688z" />
    </symbol>
    <symbol
       overflow="visible"
       id="b">
      <path
         id="path5"
         d="m13.734-11.141c-0.4375-0.19531-0.87109-0.34375-1.2969-0.4375-0.41797-0.10156-0.83984-0.15625-1.2656-0.15625-1.2617 0-2.2305 0.40625-2.9062 1.2188-0.67969 0.80469-1.0156 1.9531-1.0156 3.4531v7.0625h-4.8906v-15.312h4.8906v2.5156c0.625-1 1.3438-1.7266 2.1562-2.1875 0.82031-0.46875 1.8008-0.70312 2.9375-0.70312 0.16406 0 0.34375 0.011719 0.53125 0.03125 0.19531 0.011719 0.47656 0.039062 0.84375 0.078125z" />
    </symbol>
    <symbol
       overflow="visible"
       id="a">
      <path
         id="path8"
         d="m17.641-7.7031v1.4062h-11.453c0.125 1.1484 0.53906 2.0078 1.25 2.5781 0.70703 0.57422 1.7031 0.85938 2.9844 0.85938 1.0312 0 2.082-0.14844 3.1562-0.45312 1.082-0.3125 2.1914-0.77344 3.3281-1.3906v3.7656c-1.1562 0.4375-2.3125 0.76562-3.4688 0.98438-1.1562 0.22656-2.3125 0.34375-3.4688 0.34375-2.7734 0-4.9297-0.70312-6.4688-2.1094-1.5312-1.4062-2.2969-3.3789-2.2969-5.9219 0-2.5 0.75391-4.4609 2.2656-5.8906 1.5078-1.4375 3.582-2.1562 6.2188-2.1562 2.4062 0 4.332 0.73047 5.7812 2.1875 1.4453 1.4492 2.1719 3.3828 2.1719 5.7969zm-5.0312-1.625c0-0.92578-0.27344-1.6719-0.8125-2.2344-0.54297-0.57031-1.25-0.85938-2.125-0.85938-0.94922 0-1.7188 0.26562-2.3125 0.79688s-0.96484 1.2969-1.1094 2.2969z" />
    </symbol>
    <symbol
       overflow="visible"
       id="f">
      <path
         id="path11"
         d="m9.2188-6.8906c-1.0234 0-1.793 0.17188-2.3125 0.51562-0.51172 0.34375-0.76562 0.85547-0.76562 1.5312 0 0.625 0.20703 1.1172 0.625 1.4688 0.41406 0.34375 0.98828 0.51562 1.7188 0.51562 0.92578 0 1.7031-0.32812 2.3281-0.98438 0.63281-0.66406 0.95312-1.4922 0.95312-2.4844v-0.5625zm7.4688-1.8438v8.7344h-4.9219v-2.2656c-0.65625 0.92969-1.3984 1.6055-2.2188 2.0312-0.82422 0.41406-1.8242 0.625-3 0.625-1.5859 0-2.8711-0.45703-3.8594-1.375-0.99219-0.92578-1.4844-2.1289-1.4844-3.6094 0-1.7891 0.61328-3.1016 1.8438-3.9375 1.2383-0.84375 3.1797-1.2656 5.8281-1.2656h2.8906v-0.39062c0-0.76953-0.30859-1.332-0.92188-1.6875-0.61719-0.36328-1.5703-0.54688-2.8594-0.54688-1.0547 0-2.0312 0.10547-2.9375 0.3125-0.89844 0.21094-1.7305 0.52344-2.5 0.9375v-3.7344c1.0391-0.25 2.0859-0.44141 3.1406-0.57812 1.0625-0.13281 2.125-0.20312 3.1875-0.20312 2.7578 0 4.75 0.54688 5.9688 1.6406 1.2266 1.0859 1.8438 2.8555 1.8438 5.3125z" />
    </symbol>
    <symbol
       overflow="visible"
       id="d">
      <path
         id="path14"
         d="m7.7031-19.656v4.3438h5.0469v3.5h-5.0469v6.5c0 0.71094 0.14062 1.1875 0.42188 1.4375s0.83594 0.375 1.6719 0.375h2.5156v3.5h-4.1875c-1.9375 0-3.3125-0.39844-4.125-1.2031-0.80469-0.8125-1.2031-2.1797-1.2031-4.1094v-6.5h-2.4219v-3.5h2.4219v-4.3438z" />
    </symbol>
    <symbol
       overflow="visible"
       id="j">
      <path
         id="path17"
         d="m12.766-13.078v-8.2031h4.9219v21.281h-4.9219v-2.2188c-0.66797 0.90625-1.4062 1.5703-2.2188 1.9844s-1.7578 0.625-2.8281 0.625c-1.8867 0-3.4336-0.75-4.6406-2.25-1.2109-1.5-1.8125-3.4258-1.8125-5.7812 0-2.3633 0.60156-4.2969 1.8125-5.7969 1.207-1.5 2.7539-2.25 4.6406-2.25 1.0625 0 2 0.21484 2.8125 0.64062 0.82031 0.42969 1.5664 1.0859 2.2344 1.9688zm-3.2188 9.9219c1.0391 0 1.8359-0.37891 2.3906-1.1406 0.55078-0.76953 0.82812-1.8828 0.82812-3.3438 0-1.457-0.27734-2.5664-0.82812-3.3281-0.55469-0.76953-1.3516-1.1562-2.3906-1.1562-1.043 0-1.8398 0.38672-2.3906 1.1562-0.55469 0.76172-0.82812 1.8711-0.82812 3.3281 0 1.4609 0.27344 2.5742 0.82812 3.3438 0.55078 0.76172 1.3477 1.1406 2.3906 1.1406z" />
    </symbol>
    <symbol
       overflow="visible"
       id="i">
      <path
         id="path20"
         d="m10.5-3.1562c1.0508 0 1.8516-0.37891 2.4062-1.1406 0.55078-0.76953 0.82812-1.8828 0.82812-3.3438 0-1.457-0.27734-2.5664-0.82812-3.3281-0.55469-0.76953-1.3555-1.1562-2.4062-1.1562-1.0547 0-1.8594 0.38672-2.4219 1.1562-0.55469 0.77344-0.82812 1.8828-0.82812 3.3281 0 1.4492 0.27344 2.5586 0.82812 3.3281 0.5625 0.77344 1.3672 1.1562 2.4219 1.1562zm-3.25-9.9219c0.67578-0.88281 1.4219-1.5391 2.2344-1.9688 0.82031-0.42578 1.7656-0.64062 2.8281-0.64062 1.8945 0 3.4453 0.75 4.6562 2.25 1.207 1.5 1.8125 3.4336 1.8125 5.7969 0 2.3555-0.60547 4.2812-1.8125 5.7812-1.2109 1.5-2.7617 2.25-4.6562 2.25-1.0625 0-2.0078-0.21094-2.8281-0.625-0.8125-0.42578-1.5586-1.0859-2.2344-1.9844v2.2188h-4.8906v-21.281h4.8906z" />
    </symbol>
    <symbol
       overflow="visible"
       id="h">
      <path
         id="path23"
         d="m0.34375-15.312h4.8906l4.125 10.391 3.5-10.391h4.8906l-6.4375 16.766c-0.64844 1.6953-1.4023 2.8828-2.2656 3.5625-0.86719 0.6875-2 1.0312-3.4062 1.0312h-2.8438v-3.2188h1.5312c0.83203 0 1.4375-0.13672 1.8125-0.40625 0.38281-0.26172 0.67969-0.73047 0.89062-1.4062l0.14062-0.42188z" />
    </symbol>
    <symbol
       overflow="visible"
       id="g">
      <path
         id="path26"
         d="m7.8281-16.438v12.453h1.8906c2.1562 0 3.8008-0.53125 4.9375-1.5938 1.1328-1.0625 1.7031-2.6133 1.7031-4.6562 0-2.0195-0.57031-3.5547-1.7031-4.6094-1.125-1.0625-2.7734-1.5938-4.9375-1.5938zm-5.25-3.9688h5.5469c3.0938 0 5.3984 0.21875 6.9219 0.65625 1.5195 0.4375 2.8203 1.1875 3.9062 2.25 0.95703 0.91797 1.6641 1.9805 2.125 3.1875 0.46875 1.1992 0.70312 2.5586 0.70312 4.0781 0 1.543-0.23438 2.918-0.70312 4.125-0.46094 1.2109-1.168 2.2773-2.125 3.2031-1.0938 1.0547-2.4062 1.8047-3.9375 2.25-1.5312 0.4375-3.8281 0.65625-6.8906 0.65625h-5.5469z" />
    </symbol>
    <symbol
       overflow="visible"
       id="e">
      <path
         id="path29"
         d="m17.75-9.3281v9.3281h-4.9219v-7.1406c0-1.3203-0.03125-2.2344-0.09375-2.7344s-0.16797-0.86719-0.3125-1.1094c-0.1875-0.3125-0.44922-0.55469-0.78125-0.73438-0.32422-0.17578-0.69531-0.26562-1.1094-0.26562-1.0234 0-1.8242 0.39844-2.4062 1.1875-0.58594 0.78125-0.875 1.8711-0.875 3.2656v7.5312h-4.8906v-15.312h4.8906v2.2344c0.73828-0.88281 1.5195-1.5391 2.3438-1.9688 0.83203-0.42578 1.75-0.64062 2.75-0.64062 1.7695 0 3.1133 0.54688 4.0312 1.6406 0.91406 1.0859 1.375 2.6562 1.375 4.7188z" />
    </symbol>
    <symbol
       overflow="visible"
       id="v">
      <path
         id="path32"
         d="m2.3594-15.312h4.8906v15.312h-4.8906zm0-5.9688h4.8906v4h-4.8906z" />
    </symbol>
    <symbol
       overflow="visible"
       id="u">
      <path
         id="path35"
         d="m2.3594-21.281h4.8906v21.281h-4.8906z" />
    </symbol>
    <symbol
       overflow="visible"
       id="t">
      <path
         id="path38"
         d="m2.5781-20.406h14.203v3.9688h-8.9531v3.7969h8.4219v3.9844h-8.4219v4.6719h9.25v3.9844h-14.5z" />
    </symbol>
    <symbol
       overflow="visible"
       id="s">
      <path
         id="path41"
         d="m14.312-14.828v3.7188c-1.043-0.4375-2.0547-0.76562-3.0312-0.98438-0.98047-0.21875-1.9023-0.32812-2.7656-0.32812-0.92969 0-1.6211 0.11719-2.0781 0.34375-0.44922 0.23047-0.67188 0.58984-0.67188 1.0781 0 0.38672 0.17188 0.68359 0.51562 0.89062 0.34375 0.21094 0.95703 0.36719 1.8438 0.46875l0.85938 0.125c2.5078 0.32422 4.1953 0.85156 5.0625 1.5781 0.86328 0.73047 1.2969 1.8711 1.2969 3.4219 0 1.6367-0.60547 2.8672-1.8125 3.6875-1.1992 0.8125-2.9922 1.2188-5.375 1.2188-1.0234 0-2.0742-0.078125-3.1562-0.23438-1.0742-0.15625-2.1797-0.39453-3.3125-0.71875v-3.7188c0.96875 0.48047 1.9609 0.83984 2.9844 1.0781 1.0312 0.23047 2.0781 0.34375 3.1406 0.34375 0.95703 0 1.6758-0.12891 2.1562-0.39062 0.47656-0.26953 0.71875-0.66406 0.71875-1.1875 0-0.4375-0.16797-0.75781-0.5-0.96875-0.33594-0.21875-0.99609-0.38281-1.9844-0.5l-0.85938-0.10938c-2.1797-0.26953-3.7031-0.77344-4.5781-1.5156-0.875-0.73828-1.3125-1.8594-1.3125-3.3594 0-1.625 0.55078-2.8281 1.6562-3.6094 1.1133-0.78906 2.8203-1.1875 5.125-1.1875 0.89453 0 1.8359 0.074219 2.8281 0.21875 1 0.13672 2.082 0.35156 3.25 0.64062z" />
    </symbol>
    <symbol
       overflow="visible"
       id="c">
      <path
         id="path44"
         d="m9.6406-12.188c-1.0859 0-1.9141 0.39062-2.4844 1.1719-0.57422 0.78125-0.85938 1.9062-0.85938 3.375s0.28516 2.5938 0.85938 3.375c0.57031 0.77344 1.3984 1.1562 2.4844 1.1562 1.0625 0 1.875-0.38281 2.4375-1.1562 0.57031-0.78125 0.85938-1.9062 0.85938-3.375s-0.28906-2.5938-0.85938-3.375c-0.5625-0.78125-1.375-1.1719-2.4375-1.1719zm0-3.5c2.6328 0 4.6914 0.71484 6.1719 2.1406 1.4766 1.418 2.2188 3.3867 2.2188 5.9062 0 2.5117-0.74219 4.4805-2.2188 5.9062-1.4805 1.418-3.5391 2.125-6.1719 2.125-2.6484 0-4.7148-0.70703-6.2031-2.125-1.4922-1.4258-2.2344-3.3945-2.2344-5.9062 0-2.5195 0.74219-4.4883 2.2344-5.9062 1.4883-1.4258 3.5547-2.1406 6.2031-2.1406z" />
    </symbol>
    <symbol
       overflow="visible"
       id="r">
      <path
         id="path47"
         d="m12.422-21.281v3.2188h-2.7031c-0.6875 0-1.1719 0.125-1.4531 0.375-0.27344 0.25-0.40625 0.6875-0.40625 1.3125v1.0625h4.1875v3.5h-4.1875v11.812h-4.8906v-11.812h-2.4375v-3.5h2.4375v-1.0625c0-1.6641 0.46094-2.8984 1.3906-3.7031 0.92578-0.80078 2.3672-1.2031 4.3281-1.2031z" />
    </symbol>
    <symbol
       overflow="visible"
       id="q">
      <path
         id="path50"
         d="m16.547-12.766c0.61328-0.94531 1.3477-1.6719 2.2031-2.1719 0.85156-0.5 1.7891-0.75 2.8125-0.75 1.7578 0 3.0977 0.54688 4.0156 1.6406 0.92578 1.0859 1.3906 2.6562 1.3906 4.7188v9.3281h-4.9219v-7.9844-0.35938c0.007813-0.13281 0.015625-0.32031 0.015625-0.5625 0-1.082-0.16406-1.8633-0.48438-2.3438-0.3125-0.48828-0.82422-0.73438-1.5312-0.73438-0.92969 0-1.6484 0.38672-2.1562 1.1562-0.51172 0.76172-0.77344 1.8672-0.78125 3.3125v7.5156h-4.9219v-7.9844c0-1.6953-0.14844-2.7852-0.4375-3.2656-0.29297-0.48828-0.8125-0.73438-1.5625-0.73438-0.9375 0-1.6641 0.38672-2.1719 1.1562-0.51172 0.76172-0.76562 1.8594-0.76562 3.2969v7.5312h-4.9219v-15.312h4.9219v2.2344c0.60156-0.86328 1.2891-1.5156 2.0625-1.9531 0.78125-0.4375 1.6406-0.65625 2.5781-0.65625 1.0625 0 2 0.25781 2.8125 0.76562 0.8125 0.51172 1.4258 1.2305 1.8438 2.1562z" />
    </symbol>
    <symbol
       overflow="visible"
       id="p">
      <path
         id="path53"
         d="m17.75-9.3281v9.3281h-4.9219v-7.1094c0-1.3438-0.03125-2.2656-0.09375-2.7656s-0.16797-0.86719-0.3125-1.1094c-0.1875-0.3125-0.44922-0.55469-0.78125-0.73438-0.32422-0.17578-0.69531-0.26562-1.1094-0.26562-1.0234 0-1.8242 0.39844-2.4062 1.1875-0.58594 0.78125-0.875 1.8711-0.875 3.2656v7.5312h-4.8906v-21.281h4.8906v8.2031c0.73828-0.88281 1.5195-1.5391 2.3438-1.9688 0.83203-0.42578 1.75-0.64062 2.75-0.64062 1.7695 0 3.1133 0.54688 4.0312 1.6406 0.91406 1.0859 1.375 2.6562 1.375 4.7188z" />
    </symbol>
    <symbol
       overflow="visible"
       id="o">
      <path
         id="path56"
         d="m2.5781-20.406h5.875l7.4219 14v-14h4.9844v20.406h-5.875l-7.4219-14v14h-4.9844z" />
    </symbol>
    <symbol
       overflow="visible"
       id="n">
      <path
         id="path59"
         d="m2.1875-5.9688v-9.3438h4.9219v1.5312c0 0.83594-0.007813 1.875-0.015625 3.125-0.011719 1.25-0.015625 2.0859-0.015625 2.5 0 1.2422 0.03125 2.1328 0.09375 2.6719 0.070313 0.54297 0.17969 0.93359 0.32812 1.1719 0.20703 0.32422 0.47266 0.57422 0.79688 0.75 0.32031 0.16797 0.69141 0.25 1.1094 0.25 1.0195 0 1.8203-0.39062 2.4062-1.1719 0.58203-0.78125 0.875-1.8672 0.875-3.2656v-7.5625h4.8906v15.312h-4.8906v-2.2188c-0.74219 0.89844-1.5234 1.5586-2.3438 1.9844-0.82422 0.41406-1.7344 0.625-2.7344 0.625-1.7617 0-3.1055-0.53906-4.0312-1.625-0.92969-1.082-1.3906-2.6602-1.3906-4.7344z" />
    </symbol>
    <symbol
       overflow="visible"
       id="m">
      <path
         id="path62"
         d="m2.5781-20.406h8.7344c2.5938 0 4.582 0.57812 5.9688 1.7344 1.3945 1.1484 2.0938 2.7891 2.0938 4.9219 0 2.1367-0.69922 3.7812-2.0938 4.9375-1.3867 1.1562-3.375 1.7344-5.9688 1.7344h-3.4844v7.0781h-5.25zm5.25 3.8125v5.7031h2.9219c1.0195 0 1.8047-0.25 2.3594-0.75 0.5625-0.5 0.84375-1.2031 0.84375-2.1094 0-0.91406-0.28125-1.6172-0.84375-2.1094-0.55469-0.48828-1.3398-0.73438-2.3594-0.73438z" />
    </symbol>
    <symbol
       overflow="visible"
       id="l">
      <path
         id="path65"
         d="m2.3594-15.312h4.8906v15.031c0 2.0508-0.49609 3.6172-1.4844 4.7031-0.98047 1.082-2.4062 1.625-4.2812 1.625h-2.4219v-3.2188h0.85938c0.92578 0 1.5625-0.21094 1.9062-0.625 0.35156-0.41797 0.53125-1.2461 0.53125-2.4844zm0-5.9688h4.8906v4h-4.8906z" />
    </symbol>
    <symbol
       overflow="visible"
       id="k">
      <path
         id="path68"
         d="m14.719-14.828v3.9844c-0.65625-0.45703-1.3242-0.79688-2-1.0156-0.66797-0.21875-1.3594-0.32812-2.0781-0.32812-1.3672 0-2.4336 0.40234-3.2031 1.2031-0.76172 0.79297-1.1406 1.9062-1.1406 3.3438 0 1.4297 0.37891 2.543 1.1406 3.3438 0.76953 0.79297 1.8359 1.1875 3.2031 1.1875 0.75781 0 1.4844-0.10938 2.1719-0.32812 0.6875-0.22656 1.3203-0.56641 1.9062-1.0156v4c-0.76172 0.28125-1.5391 0.48828-2.3281 0.625-0.78125 0.14453-1.5742 0.21875-2.375 0.21875-2.7617 0-4.9219-0.70703-6.4844-2.125-1.5547-1.4141-2.3281-3.3828-2.3281-5.9062 0-2.5312 0.77344-4.5039 2.3281-5.9219 1.5625-1.4141 3.7227-2.125 6.4844-2.125 0.80078 0 1.5938 0.074219 2.375 0.21875 0.78125 0.13672 1.5547 0.35156 2.3281 0.64062z" />
    </symbol>
  </defs>
  <g
     style="fill:#ddecf2;fill-opacity:1"
     transform="matrix(1.1696831,0,0,1.1696831,-53.013493,187.85706)"
     id="g155">
    <path
       style="fill:#ddecf2;fill-opacity:1"
       id="path73"
       d="m 147.84,235.2 v 1.1211 H 98 v 19.602 h 49.84 v 103.6 c 0,13.441 11.199,24.641 24.641,24.641 h 28.559 v -173.6 h -28.559 c -13.441,0.55859 -24.641,11.199 -24.641,24.637 z"
       inkscape:connector-curvature="0" />
    <path
       style="fill:#ddecf2;fill-opacity:1"
       id="path75"
       d="m 453.04,186.48 h 16.242 v -11.199 h -79.52 v 11.199 h 15.68 v 24.641 H 294.562 V 186.48 h 15.68 v -11.199 h -79.52 v 11.199 h 16.242 v 24.641 h -35.281 v 173.6 h 276.64 v -173.6 h -35.281 z"
       inkscape:connector-curvature="0" />
    <path
       style="fill:#ddecf2;fill-opacity:1"
       id="path77"
       d="m 602,236.88 h -49.84 v -1.6797 c 0,-13.441 -11.199,-24.641 -24.641,-24.641 H 498.96 v 173.6 h 28.559 c 13.441,0 24.641,-11.199 24.641,-24.641 v -103.04 H 602 Z"
       inkscape:connector-curvature="0" />
  </g>
  <g
     transform="matrix(7.9596429,0,0,7.9596429,-1.8459667,64.196286)"
     id="g976">
    <path
       id="compost--bin_1_"
       d="M 26,31.36 H 6 C 5.801,31.36 5.64,31.199 5.64,31 V 5.36 H 2 V 4.64 h 8.64 V 1 c 0,-0.199 0.161,-0.36 0.36,-0.36 h 10 c 0.199,0 0.36,0.161 0.36,0.36 V 4.64 H 30 V 5.36 H 26.36 V 31 c 0,0.199 -0.161,0.36 -0.36,0.36 z M 6.36,30.64 H 25.64 V 5.36 H 6.36 Z m 5,-26 h 9.28 V 1.36 H 11.36 Z M 22,25.36 H 10 v -0.72 h 5.64 V 20.36 H 14 C 11.596,20.36 9.64,18.404 9.64,16 v -2 c 0,-0.199 0.161,-0.36 0.36,-0.36 h 2 c 1.529,0 2.877,0.792 3.656,1.986 0.19,-2.23 2.066,-3.986 4.344,-3.986 h 2 c 0.199,0 0.36,0.161 0.36,0.36 v 2 c 0,2.404 -1.956,4.36 -4.36,4.36 h -1.64 v 6.279 H 22 Z m -11.64,-11 V 16 c 0,2.007 1.633,3.64 3.64,3.64 h 1.131 l -2.385,-2.385 0.509,-0.509 2.386,2.385 V 18 c 0,-2.007 -1.633,-3.64 -3.64,-3.64 z m 6.509,3.28 H 18 c 2.007,0 3.64,-1.632 3.64,-3.64 V 12.36 H 20 c -2.007,0 -3.64,1.633 -3.64,3.64 v 1.131 l 2.385,-2.385 0.51,0.509 z"
       style="fill:#ddecf2;fill-opacity:1"
       inkscape:connector-curvature="0" />
    <rect
       y="0"
       x="0"
       id="_Transparent_Rectangle"
       style="fill:none"
       width="32"
       height="32" />
  </g>
  <path
     id="path496-6-8-9"
     d="m 220.6395,176.60202 c 7.84279,9.35236 14.56845,20.45102 18.81339,33.50598 24.04671,73.9525 88.71809,109.66029 88.71809,109.66029"
     style="fill:none;stroke:#ddecf2;stroke-width:4.43893099;stroke-opacity:1"
     inkscape:connector-curvature="0" />
  <path
     id="path498-1-7-2"
     d="m 327.08486,312.08126 c 0.0893,-0.038 0.22707,-0.0967 0.31545,-0.11456 0.0853,-0.0232 0.7775,7.7e-4 1.53105,0.042 1.6129,0.0898 1.6716,0.1044 2.02809,0.46749 0.40302,0.42123 0.3781,0.0889 0.41693,5.90341 0.0181,2.82161 0.0235,5.23958 0.0142,5.37371 -0.007,0.13868 -0.0576,0.31724 -0.11189,0.41484 -0.12846,0.23349 -0.40705,0.46924 -0.65795,0.54992 -0.18627,0.0579 -0.65079,0.0357 -10.57361,-0.5196 -0.51644,-0.0334 -0.73191,-0.12395 -1.03571,-0.42749 -0.34022,-0.34755 -0.36188,-0.47241 -0.37218,-2.08666 -0.007,-1.17519 0.004,-1.399 0.0744,-1.58517 0.11272,-0.28948 0.36701,-0.53973 0.65754,-0.64391 0.23794,-0.0907 0.35946,-0.0805 4.38377,0.14958 1.52759,0.0881 2.78295,0.14919 2.79069,0.13727 0.006,-0.0137 0.002,-1.56022 -0.009,-3.44032 -0.0201,-2.93836 -0.0125,-3.44822 0.0529,-3.6311 0.0871,-0.25434 0.2779,-0.48621 0.49993,-0.59839 z"
     style="fill:#ddecf2;fill-opacity:1;stroke:#ddecf2;stroke-width:0.03678397;stroke-opacity:1"
     inkscape:connector-curvature="0" />
  <path
     id="path496-6-8-9-0"
     d="m 472.15658,186.67937 c -5.26527,9.39427 -11.94279,18.36315 -20.40663,25.81767 -47.94501,42.228 -62.27655,107.41503 -62.27655,107.41503"
     style="fill:none;stroke:#ddecf2;stroke-width:3.55740952;stroke-opacity:1"
     inkscape:connector-curvature="0" />
  <path
     id="path498-1-7-2-2"
     d="m 394.69194,316.71598 c 0.0412,0.0642 0.1055,0.16313 0.13286,0.23236 0.0306,0.0655 0.1287,0.65668 0.22487,1.30511 0.20501,1.38836 0.20452,1.44225 0.009,1.85088 -0.22888,0.46517 3.4e-4,0.34561 -4.07704,2.10229 -1.9788,0.85186 -3.6762,1.57331 -3.77198,1.60527 -0.0983,0.0356 -0.23225,0.0459 -0.31002,0.0282 -0.18537,-0.0392 -0.39724,-0.20455 -0.49559,-0.3924 -0.072,-0.13999 -0.13316,-0.53889 -1.39239,-9.08104 -0.0623,-0.44593 -0.0346,-0.65467 0.12813,-1.00117 0.18757,-0.39026 0.27169,-0.44554 1.40374,-0.93287 0.82422,-0.35448 0.98318,-0.41185 1.12575,-0.40715 0.22209,0.009 0.44,0.15014 0.56154,0.36421 0.10351,0.17385 0.11684,0.27923 0.62349,3.74544 0.1921,1.31578 0.35778,2.3938 0.36738,2.39678 0.0116,7.2e-4 1.09624,-0.4606 2.41482,-1.02795 2.06042,-0.88812 2.41985,-1.03285 2.55913,-1.03194 0.19312,-0.002 0.38767,0.0905 0.50335,0.24467 z"
     style="fill:#ddecf2;fill-opacity:1;stroke:#ddecf2;stroke-width:0.02947909;stroke-opacity:1"
     inkscape:connector-curvature="0" />
  <g
     id="g5"
     style="fill:#ddecf2;fill-opacity:1"
     transform="matrix(0.21721341,0,0,0.21721341,472.35984,46.596265)">
    <g
       transform="matrix(0.1,0,0,-0.1,0,512)"
       id="g4"
       style="fill:#ddecf2;fill-opacity:1">
      <path
         d="m 1319.7,5003.5 c -40.2,-7.7 -97.7,-36.4 -124.5,-65.1 -51.7,-51.7 -51.7,-51.7 -51.7,-352.4 1.9,-212.6 11.5,-348.6 34.5,-463.5 47.9,-220.3 164.7,-566.9 268.1,-787.2 l 84.3,-183.9 -90,-450.1 C 1277.6,1898.8 1185.7,1025.4 1185.7,301.4 c 0,-595.7 68.9,-1267.9 275.8,-2687.2 l 74.7,-521 -55.6,-111.1 c -258.6,-515.2 -392.6,-1078.3 -350.5,-1469 17.2,-157.1 24.9,-176.2 78.5,-224.1 59.4,-53.6 61.3,-53.6 325.6,-53.6 442.4,0 823.6,80.4 1382.9,289.2 l 300.7,113 h 1884.7 1884.6 l 235.6,-107.3 c 515.2,-231.8 907.8,-325.6 1289,-308.4 227.9,11.5 268.1,26.8 321.8,114.9 70.9,114.9 47.9,572.7 -47.9,951.9 -49.8,199.2 -164.7,503.7 -256.7,685.7 l -57.5,114.9 53.6,256.7 c 115,521 205,1120.5 258.7,1720 78.5,865.7 61.3,1220.1 -124.5,2719.7 -30.7,258.6 -88.1,666.5 -124.5,909.8 l -65.1,440.5 103.4,229.8 c 224.1,499.9 304.5,812.1 304.5,1206.7 0,272 -15.3,331.3 -103.4,398.4 -44.1,32.6 -82.4,36.4 -308.4,36.4 -469.3,-1.9 -965.3,-114.9 -1526.5,-346.7 l -141.7,-59.4 H 5002.9 3208.2 l -185.8,76.6 c -421.4,170.5 -827.4,287.3 -1141.5,325.6 -180,21.1 -450.1,23.1 -561.2,0.1 z m 689.6,-432.9 c 195.3,-34.5 555.4,-149.4 865.7,-275.8 l 239.4,-95.8 h 1888.5 1888.5 l 189.6,78.5 c 467.3,189.6 865.7,295 1208.6,317.9 l 180,11.5 V 4492 c 0,-266.2 -93.9,-580.3 -310.3,-1043.8 l -113,-243.2 76.6,-513.3 c 74.7,-499.9 151.3,-1095.6 233.7,-1796.6 118.8,-1030.4 42.1,-2183.5 -233.7,-3476.3 l -78.5,-375.4 103.4,-218.3 c 120.7,-254.7 189.6,-430.9 243.3,-628.2 44,-159 88.1,-505.6 70.8,-551.6 -9.6,-24.9 -34.5,-28.7 -160.9,-17.2 -296.9,26.8 -666.5,147.5 -1028.5,333.3 l -172.4,88.1 H 5108.2 3116.3 l -212.6,-90 c -432.9,-180 -850.4,-291.1 -1193.2,-316 l -174.3,-11.5 v 128.3 c 0,258.6 90,563.1 300.7,1013.2 l 122.6,264.3 -78.5,521 c -90,609.1 -218.4,1612.7 -258.6,2037.9 -32.6,346.7 -38.3,994 -9.6,1367.5 49.8,641.6 170.5,1428.8 339,2194.9 5.7,26.8 -34.5,137.9 -114.9,306.4 -132.2,279.6 -227.9,553.5 -260.5,743.1 -30.6,183.9 -46,367.7 -30.6,392.6 17.2,26.9 218.3,13.5 463.5,-30.6 z"
         id="path1"
         style="fill:#ddecf2;fill-opacity:1" />
      <path
         d="m 4591.1,3473.1 c -183.9,-47.9 -310.3,-176.2 -398.4,-404.1 -21.1,-53.6 -44.1,-72.8 -120.7,-101.5 -143.6,-51.7 -275.8,-160.9 -339,-281.6 -47.9,-91.9 -53.6,-120.7 -46,-229.8 13.4,-203 139.8,-392.6 348.6,-526.7 86.2,-55.5 99.6,-74.7 132.1,-180 44.1,-145.6 147.5,-296.9 268.1,-386.9 159,-120.7 327.5,-143.7 519.1,-72.8 59.4,23 111.1,36.4 114.9,32.6 34.5,-36.4 157.1,-545.9 136,-566.9 -5.7,-3.8 -143.7,36.4 -308.4,91.9 -272,88.1 -306.5,95.8 -367.7,74.7 -72.8,-23 -139.8,-113 -139.8,-185.8 0,-67 51.7,-153.2 111.1,-182 28.7,-15.3 164.7,-63.2 300.7,-109.2 137.9,-44 256.6,-88.1 264.3,-95.8 7.7,-5.8 -1.9,-49.8 -23,-97.7 -23,-46 -40.2,-103.4 -40.2,-128.3 0,-61.3 49.8,-151.3 97.7,-178.1 59.4,-30.7 164.7,-26.8 220.3,11.5 55.6,36.4 145.6,222.2 226,463.5 l 51.7,157 264.3,88.1 c 310.3,103.4 356.3,137.9 356.3,272 0,72.8 -9.6,93.8 -63.2,141.7 -80.4,70.9 -141.7,70.9 -358.2,-1.9 -93.9,-30.7 -180,-57.5 -193.5,-57.5 -11.5,0 -38.3,61.3 -55.5,139.8 -19.2,74.7 -49.8,183.9 -70.9,241.3 -44.1,132.2 -44.1,136 13.4,136 68.9,0 231.7,65.1 310.3,126.4 99.6,76.6 159,216.4 159,383.1 0,74.7 -13.4,174.3 -30.7,224.1 -28.7,86.2 -28.7,91.9 23,218.3 97.7,241.3 63.2,509.5 -80.4,635.9 -141.7,124.5 -350.5,187.7 -551.6,166.6 -107.2,-11.5 -118.8,-7.7 -210.7,55.5 -160.8,109.4 -379.2,163 -519,126.6 z m 226,-406 c 23,-11.5 86.2,-69 141.7,-126.4 97.7,-103.4 101.5,-105.3 191.5,-95.8 49.8,3.8 130.2,23 178.1,42.1 113,42.1 214.5,15.3 270,-72.8 47.9,-80.4 34.5,-136 -59.4,-233.7 -134.1,-137.9 -137.9,-212.6 -21.1,-373.5 72.8,-99.6 76.6,-176.2 11.5,-239.4 -53.6,-55.5 -130.2,-61.3 -233.7,-19.2 -88.1,38.3 -197.3,36.4 -250.9,-1.9 -24.9,-17.2 -65.1,-76.6 -88.1,-132.1 -70.9,-157.1 -170.5,-201.1 -300.7,-132.2 -76.6,38.3 -113,130.2 -113,283.5 0,162.8 -46,220.3 -208.8,266.2 -151.3,42.1 -250.9,128.3 -250.9,214.5 0,107.3 51.7,149.4 193.4,157.1 227.9,15.3 291.1,70.9 287.3,250.9 -1.9,116.8 30.7,185.8 99.6,214.5 57.7,23.1 105.6,23.1 153.5,-1.8 z"
         id="path2-3"
         style="fill:#ddecf2;fill-opacity:1" />
      <path
         d="m 4761.5,2505.9 c -72.8,-72.8 -84.3,-147.5 -38.3,-239.4 57.5,-111.1 227.9,-132.2 319.9,-42.1 90,91.9 69,262.4 -42.1,319.9 -92,45.9 -166.7,34.4 -239.5,-38.4 z"
         id="path3"
         style="fill:#ddecf2;fill-opacity:1" />
      <path
         d="m 3056.9,-529.8 c -32.5,-21.1 -68.9,-65.1 -82.4,-99.6 -13.4,-42.1 -21.1,-323.7 -21.1,-892.5 0,-718.3 3.8,-842.7 30.6,-896.4 61.3,-132.1 -57.5,-124.5 2127.9,-124.5 1915.3,0 1970.8,1.9 2030.2,38.3 32.6,19.2 68.9,53.6 80.4,72.8 30.6,57.5 30.6,1764 -1.9,1831 -49.8,113 47.9,107.3 -2116.4,107.3 -1920.9,-0.1 -1989.8,-2 -2047.3,-36.4 z m 3784.7,-978.8 v -612.9 H 5108.2 3374.9 v 612.9 612.9 h 1733.3 1733.3 v -612.9 z"
         id="path4"
         style="fill:#ddecf2;fill-opacity:1" />
    </g>
  </g>
</svg>
