<?xml version="1.0" encoding="UTF-8" standalone="no"?>
<svg
   xmlns:dc="http://purl.org/dc/elements/1.1/"
   xmlns:cc="http://creativecommons.org/ns#"
   xmlns:rdf="http://www.w3.org/1999/02/22-rdf-syntax-ns#"
   xmlns:svg="http://www.w3.org/2000/svg"
   xmlns="http://www.w3.org/2000/svg"
   xmlns:sodipodi="http://sodipodi.sourceforge.net/DTD/sodipodi-0.dtd"
   xmlns:inkscape="http://www.inkscape.org/namespaces/inkscape"
   version="1.1"
   id="Capa_1"
   x="0px"
   y="0px"
   viewBox="0 0 611.998 611.998"
   style="enable-background:new 0 0 611.998 611.998;"
   xml:space="preserve"
   sodipodi:docname="biomassa.svg"
   inkscape:version="1.0.2 (e86c870879, 2021-01-15, custom)"><metadata
   id="metadata47"><rdf:RDF><cc:Work
       rdf:about=""><dc:format>image/svg+xml</dc:format><dc:type
         rdf:resource="http://purl.org/dc/dcmitype/StillImage" /></cc:Work></rdf:RDF></metadata><defs
   id="defs45" /><sodipodi:namedview
   pagecolor="#ffffff"
   bordercolor="#666666"
   borderopacity="1"
   objecttolerance="10"
   gridtolerance="10"
   guidetolerance="10"
   inkscape:pageopacity="0"
   inkscape:pageshadow="2"
   inkscape:window-width="1920"
   inkscape:window-height="991"
   id="namedview43"
   showgrid="false"
   inkscape:zoom="1.3398737"
   inkscape:cx="305.99899"
   inkscape:cy="305.99899"
   inkscape:window-x="-9"
   inkscape:window-y="-9"
   inkscape:window-maximized="1"
   inkscape:current-layer="Capa_1" />
<g
   id="g10"
   style="fill:#ddecf2;fill-opacity:1">
	<g
   id="g8"
   style="fill:#ddecf2;fill-opacity:1">
		<path
   d="M516.347,430.702c0,0-0.007-259.679-0.007-260.779c0-69.217-92.397-123.435-210.351-123.435    S95.638,100.707,95.638,169.923c0,1.1,0.007,92.316,0.007,92.316l-75.72-37.861l-2.213,87.121l77.933,88.164v39.504    c0,52.75-42.905,95.666-95.644,95.666v30.676c69.653,0,126.32-56.677,126.32-126.342v-51.12l-77.639-87.83l0.681-26.82    l76.958,38.479v-76.87c36.636,35.269,102.708,58.355,179.669,58.355c76.971,0,143.048-23.093,179.682-58.368v195.71    c0,69.657,56.67,126.327,126.327,126.327v-30.676C559.257,526.355,516.347,483.446,516.347,430.702z M305.989,262.686    c-97.393,0-179.675-42.48-179.675-92.761s82.282-92.758,179.675-92.758s179.675,42.478,179.675,92.758    S403.384,262.686,305.989,262.686z"
   id="path2"
   style="fill:#ddecf2;fill-opacity:1" />
		<path
   d="M407.449,114.48c-27.35-11.293-63.384-17.514-101.46-17.514c-38.078,0-74.109,6.221-101.46,17.514    c-31.654,13.072-49.084,32.127-49.084,53.657s17.431,40.587,49.084,53.659c27.348,11.293,63.382,17.514,101.46,17.514    c38.076,0,74.107-6.221,101.46-17.514c31.651-13.072,49.084-32.129,49.084-53.659S439.1,127.553,407.449,114.48z M395.739,193.443    c-23.724,9.799-55.596,15.193-89.75,15.193s-66.028-5.395-89.75-15.193c-22.232-9.179-30.118-19.37-30.118-25.306    c0-5.936,7.888-16.123,30.118-25.304c23.721-9.799,55.596-15.194,89.75-15.194c34.154,0,66.026,5.395,89.75,15.194    c22.232,9.179,30.117,19.368,30.117,25.304C425.856,174.073,417.971,184.265,395.739,193.443z"
   id="path4"
   style="fill:#ddecf2;fill-opacity:1" />
		<path
   d="M352.003,153.163h-92.029c-8.471,0-15.338,6.867-15.338,15.338s6.867,15.338,15.338,15.338h92.029    c8.471,0,15.338-6.867,15.338-15.338S360.477,153.163,352.003,153.163z"
   id="path6"
   style="fill:#ddecf2;fill-opacity:1" />
	</g>
</g>
<g
   id="g12">
</g>
<g
   id="g14">
</g>
<g
   id="g16">
</g>
<g
   id="g18">
</g>
<g
   id="g20">
</g>
<g
   id="g22">
</g>
<g
   id="g24">
</g>
<g
   id="g26">
</g>
<g
   id="g28">
</g>
<g
   id="g30">
</g>
<g
   id="g32">
</g>
<g
   id="g34">
</g>
<g
   id="g36">
</g>
<g
   id="g38">
</g>
<g
   id="g40">
</g>
</svg>
