<?xml version="1.0" encoding="UTF-8" standalone="no"?>
<!-- Created with Inkscape (http://www.inkscape.org/) -->

<svg
   width="210mm"
   height="297mm"
   viewBox="0 0 210 297"
   version="1.1"
   id="svg11420"
   xml:space="preserve"
   inkscape:version="1.2.1 (9c6d41e410, 2022-07-14)"
   sodipodi:docname="gear.svg"
   xmlns:inkscape="http://www.inkscape.org/namespaces/inkscape"
   xmlns:sodipodi="http://sodipodi.sourceforge.net/DTD/sodipodi-0.dtd"
   xmlns="http://www.w3.org/2000/svg"
   xmlns:svg="http://www.w3.org/2000/svg"><sodipodi:namedview
     id="namedview11422"
     pagecolor="#ffffff"
     bordercolor="#000000"
     borderopacity="0.25"
     inkscape:showpageshadow="2"
     inkscape:pageopacity="0.0"
     inkscape:pagecheckerboard="0"
     inkscape:deskcolor="#d1d1d1"
     inkscape:document-units="mm"
     showgrid="false"
     inkscape:zoom="2.8649832"
     inkscape:cx="339.09449"
     inkscape:cy="438.92056"
     inkscape:window-width="1920"
     inkscape:window-height="991"
     inkscape:window-x="-9"
     inkscape:window-y="-9"
     inkscape:window-maximized="1"
     inkscape:current-layer="layer1" /><defs
     id="defs11417" /><g
     inkscape:label="Lager 1"
     inkscape:groupmode="layer"
     id="layer1"><path
       style="fill:#000000;stroke-width:0.0846667"
       d="m 87.978679,116.14481 c -0.145863,-0.15526 -0.228783,-0.42866 -0.351626,-1.15934 -0.08841,-0.52589 -0.209185,-1.00332 -0.268383,-1.06094 -0.0592,-0.0576 -0.412433,-0.22506 -0.784966,-0.37206 -0.372534,-0.147 -0.715434,-0.29833 -0.762,-0.33628 -0.08784,-0.0716 -0.325217,-0.11215 -0.557815,-0.0953 -0.07396,0.005 -0.478322,0.2574 -0.898575,0.56008 -1.048054,0.75485 -1.05458,0.75398 -2.11559,-0.28283 -0.846623,-0.82731 -1.042353,-1.07363 -1.042353,-1.31173 0,-0.0682 0.255642,-0.48004 0.568094,-0.91518 0.449571,-0.6261 0.567204,-0.8531 0.563823,-1.08805 -0.0052,-0.35889 -0.577214,-1.76684 -0.794998,-1.95667 -0.09031,-0.0787 -0.541696,-0.19789 -1.073944,-0.28352 -1.35843,-0.21856 -1.392798,-0.26351 -1.374216,-1.79726 0.01379,-1.13806 0.07642,-1.45572 0.316565,-1.60569 0.0823,-0.0514 0.548343,-0.15908 1.035654,-0.2393 0.487312,-0.0802 0.968206,-0.19787 1.068653,-0.26144 0.101577,-0.0643 0.247684,-0.31428 0.329207,-0.56329 0.08062,-0.24624 0.236558,-0.62741 0.346536,-0.84706 0.274109,-0.54744 0.253809,-0.72559 -0.143287,-1.25752 -0.684916,-0.91747 -0.864124,-1.24947 -0.803922,-1.489327 0.03168,-0.12624 0.444137,-0.60755 0.94286,-1.10027 1.101497,-1.08823 1.099289,-1.0879 2.177188,-0.32552 0.443639,0.31377 0.866755,0.55033 0.984349,0.55033 0.230207,0 1.853942,-0.63825 2.012712,-0.79115 0.05589,-0.0538 0.1798,-0.53364 0.275368,-1.06628 0.248713,-1.38616 0.213913,-1.3599 1.802349,-1.3599 0.693444,0 1.329277,0.0366 1.412962,0.0814 0.214524,0.1148 0.32046,0.42857 0.472755,1.40023 0.07299,0.46567 0.178812,0.8907 0.235164,0.94452 0.16348,0.15612 1.785835,0.79115 2.02122,0.79115 0.127917,0 0.52315,-0.22123 0.98321,-0.55034 1.07132,-0.76638 1.07863,-0.76534 2.18555,0.31161 0.48725,0.47406 0.90881,0.95312 0.93678,1.06457 0.0657,0.26172 -0.0246,0.449947 -0.60134,1.253767 -0.26111,0.36391 -0.49614,0.74688 -0.52228,0.85105 -0.0297,0.11849 0.064,0.43736 0.25046,0.85186 0.16389,0.36436 0.32439,0.76944 0.35666,0.90017 0.0838,0.33954 0.30806,0.4465 1.26553,0.60363 1.10665,0.1816 1.1236,0.1879 1.27093,0.47281 0.17699,0.34225 0.17863,2.36031 0.002,2.70148 -0.15325,0.29636 -0.19222,0.31118 -1.25596,0.47769 -0.96804,0.15152 -1.19736,0.25903 -1.28335,0.60163 -0.0326,0.12997 -0.1897,0.51853 -0.34907,0.86345 -0.15936,0.34492 -0.28975,0.69556 -0.28975,0.77919 0,0.0836 0.17839,0.41164 0.39643,0.72891 0.21803,0.31727 0.48473,0.70599 0.59266,0.86383 0.34161,0.49956 0.28754,0.62174 -0.72192,1.63119 -1.1497,1.1497 -1.1627,1.15181 -2.25626,0.3652 -0.42449,-0.30535 -0.850154,-0.5477 -0.961955,-0.5477 -0.325125,0 -1.958859,0.68704 -2.053285,0.86348 -0.04696,0.0877 -0.140984,0.49133 -0.208947,0.89686 -0.177696,1.0603 -0.188606,1.09609 -0.391709,1.28531 -0.168285,0.15678 -0.295472,0.17168 -1.465883,0.17168 -1.2433,0 -1.287315,-0.006 -1.472485,-0.20318 z m 2.899492,-6.14631 c 1.882059,-0.71451 3.064988,-2.65358 2.764874,-4.53221 -0.257063,-1.60915 -1.18192,-2.79524 -2.636752,-3.38153 -0.5596,-0.22552 -0.716815,-0.25079 -1.553923,-0.24986 -0.775099,8.7e-4 -1.016552,0.0344 -1.439333,0.19988 -1.28193,0.50174 -2.24671,1.53141 -2.616754,2.79275 -0.192715,0.65689 -0.176519,1.80059 0.03521,2.48607 0.422128,1.36669 1.585537,2.44599 3.032342,2.81311 0.671951,0.1705 1.7829,0.11151 2.41434,-0.12821 z"
       id="path11916"
       sodipodi:nodetypes="csssscsssscsssssssssssssssscssssssscsssscsssssssssssssccssssssssss"
       inkscape:export-filename="gear.png"
       inkscape:export-xdpi="96"
       inkscape:export-ydpi="96" /></g></svg>
